<svg
  viewBox="0 0 124 24"
  fill="none"
  xmlns="http://www.w3.org/2000/svg"
>
  <path
    d="M6.65 16.65C4.15 16.65 2.7 14.7 2.7 12.5C2.7 9.95 4.35 8.25 6.65 8.25C7.85 8.25 8.65 8.75 9.4 9.2L10.6 7.05C9.75 6.5 8.3 5.85 6.8 5.85C2.85 5.85 0 8.65 0 12.5C0 16.3 2.9 19.15 6.8 19.15C8.45 19.15 9.65 18.45 10.6 17.9L9.4 15.75C8.65 16.25 7.55 16.65 6.65 16.65ZM15.1 0H17.65V18.8H15.1V0ZM32.35 6.25L32.05 7.35C31.35 6.6 29.9 5.85 28.35 5.85C25.2 5.85 22.3 8.35 22.3 12.4C22.3 16.6 25.2 19.15 28.35 19.15C29.9 19.15 31.3 18.4 32.05 17.65L32.35 18.8H34.5V6.3H32.35V6.25ZM32.1 12.6C32.1 15.45 30.35 16.75 28.7 16.75C27 16.75 25.05 15.6 25.05 12.45C25.05 10.45 26.1 8.3 28.5 8.3C30.3 8.3 32.1 9.75 32.1 12.45V12.6ZM43.6 13.6C45.35 14.05 46.1 14.4 46.1 15.3C46.1 16 45.5 16.7 44.1 16.7C42.8 16.7 41.75 16.25 40.75 15.7L39.6 17.85C40.5 18.4 42.45 19.15 44.1 19.15C46.9 19.15 48.55 17.25 48.55 15.35C48.55 12.05 45.3 11.55 44.45 11.25C42.65 10.75 42.2 10.4 42.2 9.65C42.2 8.85 42.9 8.3 44.2 8.3C45.35 8.3 46.2 8.65 47 9.05L48.2 6.9C47.05 6.4 45.7 5.9 44.2 5.9C41.45 5.9 39.8 7.85 39.8 9.65C39.75 12.5 42.2 13.25 43.6 13.6ZM57.25 13.6C59 14.05 59.75 14.4 59.75 15.3C59.75 16 59.15 16.7 57.75 16.7C56.45 16.7 55.4 16.25 54.4 15.7L53.25 17.85C54.15 18.4 56.1 19.15 57.75 19.15C60.55 19.15 62.2 17.25 62.2 15.35C62.2 12.05 58.95 11.55 58.1 11.25C56.3 10.75 55.85 10.4 55.85 9.65C55.85 8.85 56.55 8.3 57.85 8.3C59 8.3 59.85 8.65 60.65 9.05L61.85 6.9C60.7 6.4 59.35 5.9 57.85 5.9C55.1 5.9 53.45 7.85 53.45 9.65C53.4 12.5 55.85 13.25 57.25 13.6ZM73.25 5.85C71.7 5.85 70.3 6.6 69.55 7.35L69.25 6.2H67.1V24H69.5V17.8L69.6 17.75C70.3 18.5 71.7 19.1 73.05 19.1C76.3 19.1 79.3 17 79.3 12.35C79.35 8.15 76.45 5.85 73.25 5.85ZM72.95 16.75C71.3 16.75 69.55 15.45 69.55 12.6V12.45C69.55 9.7 71.35 8.3 73.15 8.3C75.55 8.3 76.6 10.45 76.6 12.45C76.6 15.6 74.65 16.75 72.95 16.75ZM93.55 6.25L93.25 7.4C92.55 6.65 91.1 5.9 89.55 5.9C86.4 5.9 83.5 8.4 83.5 12.45C83.5 16.65 86.4 19.2 89.55 19.2C91.1 19.2 92.5 18.45 93.25 17.7L93.55 18.85H95.7V6.35H93.55V6.25ZM93.3 12.6C93.3 15.45 91.55 16.75 89.9 16.75C88.2 16.75 86.25 15.6 86.25 12.45C86.25 10.45 87.3 8.3 89.7 8.3C91.5 8.3 93.3 9.75 93.3 12.45V12.6ZM104.8 13.6C106.55 14.05 107.3 14.4 107.3 15.3C107.3 16 106.7 16.7 105.3 16.7C104 16.7 102.95 16.25 101.95 15.7L100.8 17.85C101.7 18.4 103.65 19.15 105.3 19.15C108.1 19.15 109.75 17.25 109.75 15.35C109.75 12.05 106.5 11.55 105.65 11.25C103.85 10.75 103.4 10.4 103.4 9.65C103.4 8.85 104.1 8.3 105.4 8.3C106.55 8.3 107.4 8.65 108.2 9.05L109.4 6.9C108.25 6.4 106.9 5.9 105.4 5.9C102.65 5.9 101 7.85 101 9.65C100.95 12.5 103.4 13.25 104.8 13.6ZM118.45 13.6C120.2 14.05 120.95 14.4 120.95 15.3C120.95 16 120.35 16.7 118.95 16.7C117.65 16.7 116.6 16.25 115.6 15.7L114.45 17.85C115.35 18.4 117.3 19.15 118.95 19.15C121.75 19.15 123.4 17.25 123.4 15.35C123.4 12.05 120.15 11.55 119.3 11.25C117.5 10.75 117.05 10.4 117.05 9.65C117.05 8.85 117.75 8.3 119.05 8.3C120.2 8.3 121.05 8.65 121.85 9.05L123.05 6.9C121.9 6.4 120.55 5.9 119.05 5.9C116.3 5.9 114.65 7.85 114.65 9.65C114.6 12.5 117.05 13.25 118.45 13.6Z"
    fill="black"
  />
</svg>
